<?xml version="1.0" standalone="no"?>
<!DOCTYPE svg PUBLIC "-//W3C//DTD SVG 20010904//EN"
 "http://www.w3.org/TR/2001/REC-SVG-20010904/DTD/svg10.dtd">
<svg version="1.0" xmlns="http://www.w3.org/2000/svg"
 width="512.000000pt" height="512.000000pt" viewBox="0 0 512.000000 512.000000"
 preserveAspectRatio="xMidYMid meet">
<metadata>
Created by potrace 1.14, written by Peter Selinger 2001-2017
</metadata>
<g transform="translate(0.000000,512.000000) scale(0.100000,-0.100000)"
fill="#000000" stroke="none">
<path d="M2521 3699 l-43 -30 -306 -24 c-169 -14 -328 -27 -354 -31 -62 -8
-106 -38 -135 -94 -22 -40 -23 -55 -21 -165 3 -99 6 -120 18 -120 12 0 16 23
20 125 5 135 15 163 65 196 25 17 116 25 549 54 l169 11 42 35 c23 18 48 34
56 34 7 0 30 -16 50 -35 l36 -36 234 -15 c532 -34 504 -29 539 -87 19 -30 20
-53 20 -339 0 -333 -7 -402 -54 -519 -36 -88 -80 -151 -165 -236 -93 -93 -183
-152 -336 -218 -68 -30 -169 -77 -225 -105 l-102 -51 -71 37 c-40 21 -147 70
-238 109 -201 87 -284 140 -383 246 -141 153 -179 259 -180 510 l-1 166 -23
-15 -23 -15 3 -601 3 -601 33 -68 c41 -84 128 -178 227 -246 42 -29 191 -116
333 -193 274 -150 308 -162 374 -135 57 24 453 252 561 324 118 78 223 182
268 266 l34 62 3 798 2 798 -22 40 c-43 77 -53 79 -402 105 -415 31 -388 27
-437 63 -24 17 -50 31 -59 31 -10 0 -36 -14 -59 -31z m887 -1239 c-38 -43
-130 -100 -160 -100 -6 0 12 24 40 54 58 61 125 161 144 214 13 34 13 34 16
-42 l3 -78 -43 -48z m-1666 98 c43 -83 198 -239 295 -297 39 -23 147 -75 240
-115 92 -40 195 -87 227 -105 32 -17 65 -31 73 -31 7 0 57 22 111 49 53 27
149 71 212 98 63 28 160 74 215 103 55 28 129 61 163 72 50 15 76 31 120 74
31 30 57 54 59 54 2 0 3 -120 3 -267 l0 -268 -30 -63 c-54 -114 -161 -208
-395 -347 -71 -42 -155 -92 -185 -110 -136 -81 -248 -135 -280 -135 -32 0 -91
30 -430 218 -74 41 -162 94 -195 118 -83 58 -177 161 -211 231 l-29 58 -3 363
c-2 199 -1 362 2 362 3 0 20 -28 38 -62z"/>
<path d="M2346 1824 c-21 -21 -20 -41 3 -54 29 -15 424 -13 439 2 18 18 14 46
-7 58 -12 6 -101 10 -220 10 -168 0 -202 -2 -215 -16z"/>
<path d="M2350 1605 c-6 -8 -10 -22 -8 -32 3 -17 20 -18 228 -18 208 0 225 1
228 18 9 43 -9 47 -228 47 -169 0 -210 -3 -220 -15z"/>
<path d="M2905 3224 c-88 -63 -199 -143 -246 -177 l-86 -63 -167 113 c-163
109 -205 131 -192 97 3 -9 6 -20 6 -25 0 -5 6 -9 13 -9 7 0 86 -49 176 -110
l163 -109 196 137 c109 76 223 155 255 177 32 22 60 42 63 46 5 9 -6 39 -15
38 -3 0 -78 -52 -166 -115z"/>
<path d="M2991 3131 c-36 -31 -42 -41 -34 -56 9 -16 15 -14 57 25 76 70 55 99
-23 31z"/>
<path d="M2210 3071 c-15 -29 2 -51 68 -91 30 -18 108 -70 175 -116 90 -62
124 -81 136 -74 9 5 90 62 181 127 148 106 197 153 158 153 -7 0 -89 -56 -183
-124 l-169 -123 -126 85 c-153 104 -210 150 -207 164 4 20 -22 19 -33 -1z"/>
<path d="M3001 2991 c-24 -20 -32 -33 -28 -45 6 -16 9 -16 37 4 19 14 30 30
30 46 0 13 -1 24 -2 24 -2 0 -18 -13 -37 -29z"/>
<path d="M2217 2919 c-11 -15 -13 -27 -7 -40 8 -14 323 -245 351 -257 4 -2 55
32 114 75 59 43 137 100 174 126 88 63 102 79 92 96 -7 11 -28 -1 -97 -52
-226 -167 -269 -197 -279 -196 -23 1 -310 216 -313 234 -6 33 -19 38 -35 14z"/>
<path d="M2876 2635 c-17 -13 -14 -19 50 -104 38 -49 74 -90 79 -90 6 0 18 6
27 13 16 12 12 21 -54 104 -39 51 -73 92 -77 92 -3 0 -14 -7 -25 -15z"/>
</g>
</svg>
